<svg width="11" height="14" viewBox="0 0 11 14" fill="none" xmlns="http://www.w3.org/2000/svg">
<path d="M10.5 5.5C10.5 9.5625 5.5 13 5.5 13C5.5 13 0.5 9.5625 0.5 5.5C0.5 4.17392 1.02678 2.90215 1.96447 1.96447C2.90215 1.02678 4.17392 0.5 5.5 0.5C6.82608 0.5 8.09785 1.02678 9.03553 1.96447C9.97321 2.90215 10.5 4.17392 10.5 5.5Z" stroke="black"/>
<path d="M7.375 5.5C7.375 5.99728 7.17746 6.47419 6.82583 6.82583C6.47419 7.17746 5.99728 7.375 5.5 7.375C5.00272 7.375 4.52581 7.17746 4.17417 6.82583C3.82254 6.47419 3.625 5.99728 3.625 5.5C3.625 5.00272 3.82254 4.52581 4.17417 4.17417C4.52581 3.82254 5.00272 3.625 5.5 3.625C5.99728 3.625 6.47419 3.82254 6.82583 4.17417C7.17746 4.52581 7.375 5.00272 7.375 5.5Z" stroke="black"/>
</svg>
