<svg width="17" height="19" viewBox="0 0 17 19" fill="none" xmlns="http://www.w3.org/2000/svg">
<path d="M16.7072 14.7762C16.1603 14.2886 15.6815 13.7297 15.2837 13.1145C14.849 12.2655 14.5887 11.338 14.5181 10.3867V7.58515C14.5219 6.09115 13.9799 4.6472 12.9941 3.5246C12.0083 2.40199 10.6465 1.67801 9.16456 1.48867V0.757097C9.16456 0.556302 9.0848 0.363732 8.94281 0.221749C8.80083 0.0797654 8.60826 0 8.40747 0C8.20667 0 8.0141 0.0797654 7.87212 0.221749C7.73013 0.363732 7.65037 0.556302 7.65037 0.757097V1.50002C6.18169 1.703 4.83633 2.43136 3.86348 3.55019C2.89063 4.66903 2.35621 6.10251 2.35919 7.58515V10.3867C2.28862 11.338 2.0283 12.2655 1.59359 13.1145C1.20278 13.7283 0.731688 14.2872 0.192819 14.7762C0.132326 14.8293 0.0838429 14.8947 0.0505965 14.9681C0.01735 15.0414 0.000101965 15.121 0 15.2015V15.9728C0 16.1232 0.0597493 16.2674 0.166104 16.3738C0.272458 16.4801 0.416706 16.5399 0.567114 16.5399H16.3329C16.4833 16.5399 16.6275 16.4801 16.7339 16.3738C16.8403 16.2674 16.9 16.1232 16.9 15.9728V15.2015C16.8999 15.121 16.8827 15.0414 16.8494 14.9681C16.8162 14.8947 16.7677 14.8293 16.7072 14.7762ZM1.1796 15.4057C1.70712 14.8958 2.17169 14.3246 2.56336 13.7043C3.11107 12.6789 3.43029 11.5471 3.49909 10.3867V7.58515C3.4766 6.92051 3.58809 6.25815 3.82691 5.63749C4.06574 5.01684 4.42701 4.45059 4.88923 3.97246C5.35145 3.49434 5.90516 3.11412 6.51738 2.85444C7.1296 2.59476 7.78782 2.46094 8.45284 2.46094C9.11785 2.46094 9.77607 2.59476 10.3883 2.85444C11.0005 3.11412 11.5542 3.49434 12.0164 3.97246C12.4787 4.45059 12.8399 5.01684 13.0788 5.63749C13.3176 6.25815 13.4291 6.92051 13.4066 7.58515V10.3867C13.4754 11.5471 13.7946 12.6789 14.3423 13.7043C14.734 14.3246 15.1985 14.8958 15.7261 15.4057H1.1796Z" fill="black"/>
<path d="M8.47873 18.434C8.83597 18.4258 9.1788 18.2915 9.44657 18.0548C9.71433 17.8182 9.88978 17.4945 9.94188 17.141H6.95886C7.01244 17.5041 7.1961 17.8354 7.47567 18.0733C7.75525 18.3111 8.11171 18.4393 8.47873 18.434Z" fill="black"/>
</svg>
