<svg width="24" height="24" viewBox="0 0 24 24" fill="none" xmlns="http://www.w3.org/2000/svg">
<path d="M22.8571 24L16.4195 17.652C15.5475 18.3949 14.5447 18.9697 13.4111 19.3766C12.2775 19.7835 11.1381 19.9869 9.99294 19.9869C7.20026 19.9869 4.83661 19.0203 2.90196 17.0871C0.967321 15.1538 0 12.791 0 9.9987C0 7.20636 0.966158 4.84241 2.89847 2.90684C4.83079 0.971275 7.19329 0.00232919 9.98596 4.18167e-06C12.7786 -0.00232083 15.1435 0.964882 17.0804 2.90161C19.0174 4.83834 19.9859 7.20229 19.9859 9.99346C19.9859 11.2048 19.7714 12.3772 19.3424 13.5106C18.9133 14.6441 18.3495 15.6136 17.6507 16.4192L24 22.8571L22.8571 24ZM9.99468 18.2414C12.3083 18.2414 14.2616 17.4451 15.8544 15.8525C17.4472 14.2599 18.2437 12.3063 18.2437 9.99172C18.2437 7.67718 17.4472 5.72417 15.8544 4.1327C14.2616 2.54124 12.3083 1.74492 9.99468 1.74376C7.68102 1.7426 5.72719 2.53891 4.1332 4.1327C2.53922 5.7265 1.74281 7.6795 1.74397 9.99172C1.74513 12.3039 2.54154 14.2569 4.1332 15.8507C5.72487 17.4445 7.67811 18.2408 9.99294 18.2397" fill="#464545"/>
</svg>
